#tb 0: 1/25
#media_type 0: video
#codec_id 0: rawvideo
#dimensions 0: 352x288
#sar 0: 0/1
0,          0,          0,        1,   405504, 0x2e44c4b0
0,          1,          1,        1,   405504, 0xf47244e0
0,          2,          2,        1,   405504, 0x040769dd
